<svg width="913" height="166" viewBox="0 0 913 166" fill="none" xmlns="http://www.w3.org/2000/svg">
<path fill-rule="evenodd" clip-rule="evenodd" d="M7.56248 155.88H72.7187L40.1406 125.63L72.4948 95.5729L164.969 9.67709H100.255L0.00518799 102.786V155.88H7.56248ZM100.911 96.375L68.5573 126.432L100.255 155.88H164.969L100.911 96.375ZM7.0156 9.67709H0.00518799V76.3021L71.7239 9.67709H7.0156Z" fill="#22C55E"/>
<path d="M257.33 93.752L249.394 104.888V131H230.194V41.656H249.394V79.032H250.418L260.146 64.184L275.89 41.656H297.394L270.642 79.416L298.674 131H277.042L257.33 93.752ZM340.736 56.504C336.469 56.504 333.482 55.6507 331.776 53.944C330.154 52.152 329.344 50.0187 329.344 47.544V43.832C329.344 41.272 330.154 39.1387 331.776 37.432C333.482 35.7253 336.469 34.872 340.736 34.872C345.002 34.872 347.946 35.7253 349.568 37.432C351.274 39.1387 352.128 41.272 352.128 43.832V47.544C352.128 50.0187 351.274 52.152 349.568 53.944C347.946 55.6507 345.002 56.504 340.736 56.504ZM310.272 116.28H331.264V79.672H310.272V64.952H350.208V116.28H369.664V131H310.272V116.28ZM418.51 131C411.683 131 406.606 129.208 403.278 125.624C399.95 122.04 398.286 117.475 398.286 111.928V79.672H380.366V64.952H392.014C394.83 64.952 396.835 64.3973 398.03 63.288C399.224 62.1787 399.822 60.1307 399.822 57.144V41.656H417.23V64.952H442.958V79.672H417.23V116.28H442.958V131H418.51ZM460.444 116.28H480.668V51H460.444V36.28H499.612V116.28H519.836V131H460.444V116.28ZM568.682 132.536C557.588 132.536 549.183 129.464 543.466 123.32C537.748 117.176 534.89 108.813 534.89 98.232C534.89 92.856 535.615 88.0347 537.066 83.768C538.602 79.416 540.735 75.7467 543.466 72.76C546.282 69.688 549.652 67.384 553.578 65.848C557.588 64.2267 562.068 63.416 567.018 63.416C571.967 63.416 576.404 64.2267 580.33 65.848C584.255 67.384 587.583 69.6027 590.314 72.504C593.044 75.4053 595.135 78.9467 596.586 83.128C598.122 87.224 598.89 91.832 598.89 96.952V102.584H553.706V103.736C553.706 108.003 555.028 111.459 557.674 114.104C560.319 116.664 564.202 117.944 569.322 117.944C573.247 117.944 576.618 117.219 579.434 115.768C582.25 114.232 584.682 112.227 586.73 109.752L596.97 120.888C594.41 124.045 590.826 126.776 586.218 129.08C581.61 131.384 575.764 132.536 568.682 132.536ZM567.146 76.984C563.05 76.984 559.764 78.264 557.29 80.824C554.9 83.2987 553.706 86.6693 553.706 90.936V91.96H580.33V90.936C580.33 86.584 579.135 83.1707 576.746 80.696C574.442 78.2213 571.242 76.984 567.146 76.984ZM655.544 118.968H654.648C652.941 122.979 650.552 126.264 647.48 128.824C644.493 131.299 640.354 132.536 635.064 132.536C631.394 132.536 628.024 131.853 624.952 130.488C621.965 129.123 619.362 127.032 617.144 124.216C615.01 121.4 613.304 117.816 612.024 113.464C610.829 109.112 610.232 103.949 610.232 97.976C610.232 92.0027 610.829 86.84 612.024 82.488C613.304 78.136 615.01 74.552 617.144 71.736C619.362 68.92 621.965 66.8293 624.952 65.464C628.024 64.0987 631.394 63.416 635.064 63.416C637.709 63.416 640.056 63.7573 642.104 64.44C644.152 65.1227 645.944 66.0613 647.48 67.256C649.101 68.4507 650.466 69.9013 651.576 71.608C652.77 73.2293 653.794 75.0213 654.648 76.984H655.544V36.28H674.488V131H655.544V118.968ZM643.256 117.816C646.584 117.816 649.442 117.005 651.832 115.384C654.306 113.763 655.544 111.203 655.544 107.704V88.248C655.544 84.7493 654.306 82.1893 651.832 80.568C649.442 78.9467 646.584 78.136 643.256 78.136C638.989 78.136 635.704 79.4587 633.4 82.104C631.096 84.664 629.944 88.248 629.944 92.856V103.096C629.944 107.704 631.096 111.331 633.4 113.976C635.704 116.536 638.989 117.816 643.256 117.816ZM756.614 137.656C756.614 144.653 753.67 149.816 747.782 153.144C741.894 156.472 732.635 158.136 720.006 158.136C713.691 158.136 708.486 157.752 704.39 156.984C700.294 156.301 697.008 155.277 694.534 153.912C692.144 152.547 690.438 150.925 689.414 149.048C688.475 147.171 688.006 145.123 688.006 142.904C688.006 139.149 689.115 136.291 691.334 134.328C693.552 132.451 696.667 131 700.678 129.976V129.208C697.862 128.355 695.6 127.16 693.894 125.624C692.272 124.003 691.462 121.741 691.462 118.84C691.462 115.597 692.528 113.208 694.662 111.672C696.88 110.136 699.782 108.941 703.366 108.088V107.32C699.44 105.443 696.368 102.797 694.15 99.384C692.016 95.9707 690.95 91.832 690.95 86.968C690.95 83.128 691.632 79.7573 692.998 76.856C694.363 73.8693 696.283 71.3947 698.758 69.432C701.318 67.4693 704.347 65.976 707.846 64.952C711.344 63.928 715.27 63.416 719.622 63.416C723.803 63.416 727.686 63.8853 731.27 64.824V61.24C731.27 58.68 732.166 56.5467 733.958 54.84C735.75 53.1333 738.224 52.28 741.382 52.28H753.03V66.104H737.158V67.256C740.742 69.1333 743.515 71.736 745.478 75.064C747.526 78.3067 748.55 82.2747 748.55 86.968C748.55 90.808 747.867 94.1787 746.502 97.08C745.136 99.9813 743.174 102.456 740.614 104.504C738.054 106.467 734.982 107.96 731.398 108.984C727.899 110.008 723.974 110.52 719.622 110.52C717.659 110.52 715.782 110.435 713.99 110.264C712.198 110.008 710.491 109.667 708.87 109.24C707.931 109.752 707.12 110.392 706.438 111.16C705.84 111.928 705.542 112.909 705.542 114.104C705.542 115.128 705.798 115.939 706.31 116.536C706.822 117.133 707.504 117.603 708.358 117.944C709.296 118.2 710.363 118.371 711.558 118.456C712.752 118.541 713.99 118.584 715.27 118.584H730.374C735.067 118.584 739.078 119.053 742.406 119.992C745.734 120.931 748.464 122.253 750.598 123.96C752.731 125.667 754.267 127.672 755.206 129.976C756.144 132.28 756.614 134.84 756.614 137.656ZM738.694 139.064C738.694 137.357 738.011 135.992 736.646 134.968C735.28 134.029 732.678 133.56 728.838 133.56H706.182C704.475 135.011 703.622 136.803 703.622 138.936C703.622 140.984 704.475 142.648 706.182 143.928C707.974 145.293 710.96 145.976 715.142 145.976H726.278C730.63 145.976 733.787 145.379 735.75 144.184C737.712 142.989 738.694 141.283 738.694 139.064ZM719.622 98.488C723.462 98.488 726.235 97.5493 727.942 95.672C729.734 93.7947 730.63 91.4053 730.63 88.504V85.432C730.63 82.5307 729.734 80.1413 727.942 78.264C726.235 76.3867 723.462 75.448 719.622 75.448C715.867 75.448 713.136 76.3867 711.43 78.264C709.723 80.1413 708.87 82.5307 708.87 85.432V88.504C708.87 91.4053 709.723 93.7947 711.43 95.672C713.136 97.5493 715.867 98.488 719.622 98.488ZM798.932 132.536C787.838 132.536 779.433 129.464 773.716 123.32C767.998 117.176 765.14 108.813 765.14 98.232C765.14 92.856 765.865 88.0347 767.316 83.768C768.852 79.416 770.985 75.7467 773.716 72.76C776.532 69.688 779.902 67.384 783.828 65.848C787.838 64.2267 792.318 63.416 797.268 63.416C802.217 63.416 806.654 64.2267 810.58 65.848C814.505 67.384 817.833 69.6027 820.564 72.504C823.294 75.4053 825.385 78.9467 826.836 83.128C828.372 87.224 829.14 91.832 829.14 96.952V102.584H783.956V103.736C783.956 108.003 785.278 111.459 787.924 114.104C790.569 116.664 794.452 117.944 799.572 117.944C803.497 117.944 806.868 117.219 809.684 115.768C812.5 114.232 814.932 112.227 816.98 109.752L827.22 120.888C824.66 124.045 821.076 126.776 816.468 129.08C811.86 131.384 806.014 132.536 798.932 132.536ZM797.396 76.984C793.3 76.984 790.014 78.264 787.54 80.824C785.15 83.2987 783.956 86.6693 783.956 90.936V91.96H810.58V90.936C810.58 86.584 809.385 83.1707 806.996 80.696C804.692 78.2213 801.492 76.984 797.396 76.984ZM844.962 116.28H860.194V79.672H844.962V64.952H879.138V83.64H880.034C880.631 81.2507 881.442 78.9467 882.466 76.728C883.575 74.424 884.94 72.4187 886.562 70.712C888.268 68.92 890.316 67.512 892.706 66.488C895.095 65.464 897.911 64.952 901.154 64.952H907.426V82.36H893.346C888.652 82.36 885.111 83.768 882.722 86.584C880.332 89.3147 879.138 92.6853 879.138 96.696V116.28H900.898V131H844.962V116.28Z" fill="white"/>
</svg>
