<svg width="1000" height="1000" viewBox="0 0 1000 1000" fill="none" xmlns="http://www.w3.org/2000/svg">
<rect width="1000" height="1000" fill="#042F2E"/>
<path fill-rule="evenodd" clip-rule="evenodd" d="M354.66 500H481.051L417.856 441.239L480.617 382.853L660 216H534.467L340 396.865V500H354.66ZM535.74 384.411L472.979 442.797L534.467 500H660L535.74 384.411ZM353.599 216H340V345.419L479.122 216H353.599Z" fill="#22C55E"/>
<path d="M190.84 711.752L182.904 722.888V749H163.704V659.656H182.904V697.032H183.928L193.656 682.184L209.4 659.656H230.904L204.152 697.416L232.184 749H210.552L190.84 711.752ZM274.246 674.504C269.979 674.504 266.993 673.651 265.286 671.944C263.665 670.152 262.854 668.019 262.854 665.544V661.832C262.854 659.272 263.665 657.139 265.286 655.432C266.993 653.725 269.979 652.872 274.246 652.872C278.513 652.872 281.457 653.725 283.078 655.432C284.785 657.139 285.638 659.272 285.638 661.832V665.544C285.638 668.019 284.785 670.152 283.078 671.944C281.457 673.651 278.513 674.504 274.246 674.504ZM243.782 734.28H264.774V697.672H243.782V682.952H283.718V734.28H303.174V749H243.782V734.28ZM352.02 749C345.193 749 340.116 747.208 336.788 743.624C333.46 740.04 331.796 735.475 331.796 729.928V697.672H313.876V682.952H325.524C328.34 682.952 330.345 682.397 331.54 681.288C332.735 680.179 333.332 678.131 333.332 675.144V659.656H350.74V682.952H376.468V697.672H350.74V734.28H376.468V749H352.02ZM393.954 734.28H414.178V669H393.954V654.28H433.122V734.28H453.346V749H393.954V734.28ZM502.192 750.536C491.099 750.536 482.693 747.464 476.976 741.32C471.259 735.176 468.4 726.813 468.4 716.232C468.4 710.856 469.125 706.035 470.576 701.768C472.112 697.416 474.245 693.747 476.976 690.76C479.792 687.688 483.163 685.384 487.088 683.848C491.099 682.227 495.579 681.416 500.528 681.416C505.477 681.416 509.915 682.227 513.84 683.848C517.765 685.384 521.093 687.603 523.824 690.504C526.555 693.405 528.645 696.947 530.096 701.128C531.632 705.224 532.4 709.832 532.4 714.952V720.584H487.216V721.736C487.216 726.003 488.539 729.459 491.184 732.104C493.829 734.664 497.712 735.944 502.832 735.944C506.757 735.944 510.128 735.219 512.944 733.768C515.76 732.232 518.192 730.227 520.24 727.752L530.48 738.888C527.92 742.045 524.336 744.776 519.728 747.08C515.12 749.384 509.275 750.536 502.192 750.536ZM500.656 694.984C496.56 694.984 493.275 696.264 490.8 698.824C488.411 701.299 487.216 704.669 487.216 708.936V709.96H513.84V708.936C513.84 704.584 512.645 701.171 510.256 698.696C507.952 696.221 504.752 694.984 500.656 694.984ZM589.054 736.968H588.158C586.451 740.979 584.062 744.264 580.99 746.824C578.003 749.299 573.865 750.536 568.574 750.536C564.905 750.536 561.534 749.853 558.462 748.488C555.475 747.123 552.873 745.032 550.654 742.216C548.521 739.4 546.814 735.816 545.534 731.464C544.339 727.112 543.742 721.949 543.742 715.976C543.742 710.003 544.339 704.84 545.534 700.488C546.814 696.136 548.521 692.552 550.654 689.736C552.873 686.92 555.475 684.829 558.462 683.464C561.534 682.099 564.905 681.416 568.574 681.416C571.219 681.416 573.566 681.757 575.614 682.44C577.662 683.123 579.454 684.061 580.99 685.256C582.611 686.451 583.977 687.901 585.086 689.608C586.281 691.229 587.305 693.021 588.158 694.984H589.054V654.28H607.998V749H589.054V736.968ZM576.766 735.816C580.094 735.816 582.953 735.005 585.342 733.384C587.817 731.763 589.054 729.203 589.054 725.704V706.248C589.054 702.749 587.817 700.189 585.342 698.568C582.953 696.947 580.094 696.136 576.766 696.136C572.499 696.136 569.214 697.459 566.91 700.104C564.606 702.664 563.454 706.248 563.454 710.856V721.096C563.454 725.704 564.606 729.331 566.91 731.976C569.214 734.536 572.499 735.816 576.766 735.816ZM690.124 755.656C690.124 762.653 687.18 767.816 681.292 771.144C675.404 774.472 666.145 776.136 653.516 776.136C647.201 776.136 641.996 775.752 637.9 774.984C633.804 774.301 630.519 773.277 628.044 771.912C625.655 770.547 623.948 768.925 622.924 767.048C621.985 765.171 621.516 763.123 621.516 760.904C621.516 757.149 622.625 754.291 624.844 752.328C627.063 750.451 630.177 749 634.188 747.976V747.208C631.372 746.355 629.111 745.16 627.404 743.624C625.783 742.003 624.972 739.741 624.972 736.84C624.972 733.597 626.039 731.208 628.172 729.672C630.391 728.136 633.292 726.941 636.876 726.088V725.32C632.951 723.443 629.879 720.797 627.66 717.384C625.527 713.971 624.46 709.832 624.46 704.968C624.46 701.128 625.143 697.757 626.508 694.856C627.873 691.869 629.793 689.395 632.268 687.432C634.828 685.469 637.857 683.976 641.356 682.952C644.855 681.928 648.78 681.416 653.132 681.416C657.313 681.416 661.196 681.885 664.78 682.824V679.24C664.78 676.68 665.676 674.547 667.468 672.84C669.26 671.133 671.735 670.28 674.892 670.28H686.54V684.104H670.668V685.256C674.252 687.133 677.025 689.736 678.988 693.064C681.036 696.307 682.06 700.275 682.06 704.968C682.06 708.808 681.377 712.179 680.012 715.08C678.647 717.981 676.684 720.456 674.124 722.504C671.564 724.467 668.492 725.96 664.908 726.984C661.409 728.008 657.484 728.52 653.132 728.52C651.169 728.52 649.292 728.435 647.5 728.264C645.708 728.008 644.001 727.667 642.38 727.24C641.441 727.752 640.631 728.392 639.948 729.16C639.351 729.928 639.052 730.909 639.052 732.104C639.052 733.128 639.308 733.939 639.82 734.536C640.332 735.133 641.015 735.603 641.868 735.944C642.807 736.2 643.873 736.371 645.068 736.456C646.263 736.541 647.5 736.584 648.78 736.584H663.884C668.577 736.584 672.588 737.053 675.916 737.992C679.244 738.931 681.975 740.253 684.108 741.96C686.241 743.667 687.777 745.672 688.716 747.976C689.655 750.28 690.124 752.84 690.124 755.656ZM672.204 757.064C672.204 755.357 671.521 753.992 670.156 752.968C668.791 752.029 666.188 751.56 662.348 751.56H639.692C637.985 753.011 637.132 754.803 637.132 756.936C637.132 758.984 637.985 760.648 639.692 761.928C641.484 763.293 644.471 763.976 648.652 763.976H659.788C664.14 763.976 667.297 763.379 669.26 762.184C671.223 760.989 672.204 759.283 672.204 757.064ZM653.132 716.488C656.972 716.488 659.745 715.549 661.452 713.672C663.244 711.795 664.14 709.405 664.14 706.504V703.432C664.14 700.531 663.244 698.141 661.452 696.264C659.745 694.387 656.972 693.448 653.132 693.448C649.377 693.448 646.647 694.387 644.94 696.264C643.233 698.141 642.38 700.531 642.38 703.432V706.504C642.38 709.405 643.233 711.795 644.94 713.672C646.647 715.549 649.377 716.488 653.132 716.488ZM732.442 750.536C721.349 750.536 712.943 747.464 707.226 741.32C701.509 735.176 698.65 726.813 698.65 716.232C698.65 710.856 699.375 706.035 700.826 701.768C702.362 697.416 704.495 693.747 707.226 690.76C710.042 687.688 713.413 685.384 717.338 683.848C721.349 682.227 725.829 681.416 730.778 681.416C735.727 681.416 740.165 682.227 744.09 683.848C748.015 685.384 751.343 687.603 754.074 690.504C756.805 693.405 758.895 696.947 760.346 701.128C761.882 705.224 762.65 709.832 762.65 714.952V720.584H717.466V721.736C717.466 726.003 718.789 729.459 721.434 732.104C724.079 734.664 727.962 735.944 733.082 735.944C737.007 735.944 740.378 735.219 743.194 733.768C746.01 732.232 748.442 730.227 750.49 727.752L760.73 738.888C758.17 742.045 754.586 744.776 749.978 747.08C745.37 749.384 739.525 750.536 732.442 750.536ZM730.906 694.984C726.81 694.984 723.525 696.264 721.05 698.824C718.661 701.299 717.466 704.669 717.466 708.936V709.96H744.09V708.936C744.09 704.584 742.895 701.171 740.506 698.696C738.202 696.221 735.002 694.984 730.906 694.984ZM778.472 734.28H793.704V697.672H778.472V682.952H812.648V701.64H813.544C814.141 699.251 814.952 696.947 815.976 694.728C817.085 692.424 818.451 690.419 820.072 688.712C821.779 686.92 823.827 685.512 826.216 684.488C828.605 683.464 831.421 682.952 834.664 682.952H840.936V700.36H826.856C822.163 700.36 818.621 701.768 816.232 704.584C813.843 707.315 812.648 710.685 812.648 714.696V734.28H834.408V749H778.472V734.28Z" fill="white"/>
</svg>
